# xmcd
#
# Track frame offsets:
#	150
#	18975
#	36225
#	52862
#	73000
#	90400
#	106447
#	121092
#	140975
#	159612
#	172917
#	191355
#	210217
#	229965
#	248092
#	265355
#
# Disc length: 3837
#
# Revision: 3
# Processed by: cddbd v1.5.1PL0 Copyright (c) Steve Scherf et al.
# Submitted via: Easy CD Ripper v2.15
# Normalized: r1:DSETVAR1,TSWAP
#
DISCID=d40efb10
DTITLE=Various Artist - Love Song Dedications
DYEAR=1997
DGENRE=Blues
TTITLE0=Tina Arena - Wasn't It Good
TTITLE1=Berlin - Take My Breath Away
TTITLE2=Sade - My Love Is King
TTITLE3=Lisa Stansf - All Around The World
TTITLE4=The Righteous Brothers - You've Lost That Lovin' Feelin'
TTITLE5=Lionda Ronstadt and Aaron Neville - Don't Know Much
TTITLE6=Gloria Estefan - Cuts Both Ways
TTITLE7=Richard Marx - Right Here Waiting
TTITLE8=Joshua Kadison - Beautiful In My Eyes
TTITLE9=Percy Sledge - When A Man Loves A Woman
TTITLE10=Dan Hill - Sometimes When We Touch
TTITLE11=Boz Scaggs - We're All Alone
TTITLE12=Peter Cetera - Glory Of Love
TTITLE13=Take That - Back For Good
TTITLE14=Londonbeat - I've Been Thinking About You
TTITLE15=Kenny GForever In Love - Kenny G
EXTD=
EXTT0=
EXTT1=
EXTT2=
EXTT3=
EXTT4=The Righteous Brothers
EXTT5=Lionda Ronstadt and Aaron Neville
EXTT6=
EXTT7=
EXTT8=
EXTT9=Percy Sledge
EXTT10=Dan Hill
EXTT11=
EXTT12=
EXTT13=
EXTT14=Londonbeat
EXTT15=
PLAYORDER=
